<svg width="128" height="46" viewBox="0 0 128 46" fill="none" xmlns="http://www.w3.org/2000/svg">
<path fill-rule="evenodd" clip-rule="evenodd" d="M34.9775 25.3421C35.0961 24.6505 35.1579 23.9396 35.1579 23.2143C35.1579 16.3107 29.5615 10.7143 22.6579 10.7143C18.4719 10.7143 14.7664 12.772 12.4978 15.931C13.7655 15.7557 15.019 15.8369 16.2611 16.1524C19.3945 16.9481 22.0596 19.1812 24.2202 21L24.3922 21.1449C26.6798 23.0713 28.5379 24.636 30.5308 25.3771C31.8223 25.8574 33.2368 26.0099 34.9775 25.3421ZM32.6009 30.7908C30.3171 33.7834 26.713 35.7143 22.6579 35.7143C15.7543 35.7143 10.1579 30.1179 10.1579 23.2143C10.1579 22.8571 10.1729 22.5035 10.2022 22.1539C12.2658 20.7423 13.7881 20.6831 15.0305 20.9986C16.8615 21.4636 18.6643 22.8587 21 24.8251C21.1387 24.9418 21.2794 25.0607 21.4222 25.1814L21.4222 25.1814C23.4727 26.9143 25.9504 29.0083 28.788 30.0636C30.0143 30.5196 31.285 30.7783 32.6009 30.7908Z" fill="#3CDDF3"/>
<path d="M49.5637 30.6175C48.4353 30.6175 47.4586 30.4051 46.6334 29.9804C45.8251 29.5556 45.2104 29.0035 44.7894 28.3239C44.3684 27.6273 44.1579 26.8968 44.1579 26.1322V25.9793H47.5681V26.1322C47.5681 26.591 47.7449 26.9987 48.0985 27.3555C48.4522 27.7123 48.9658 27.8906 49.6394 27.8906C50.1952 27.8906 50.6414 27.7632 50.9782 27.5084C51.3319 27.2366 51.5087 26.8713 51.5087 26.4126C51.5087 26.0048 51.3572 25.682 51.054 25.4442C50.7509 25.2063 50.372 25.0534 49.9173 24.9854L48.4017 24.6796C47.4081 24.4928 46.5071 24.0935 45.6988 23.4819C44.8905 22.8703 44.4863 21.9443 44.4863 20.7041C44.4863 19.4299 44.9494 18.436 45.8756 17.7224C46.8018 16.9919 47.9891 16.6266 49.4374 16.6266C50.4983 16.6266 51.4161 16.822 52.1908 17.2128C52.9654 17.6035 53.5548 18.1217 53.959 18.7673C54.3632 19.3959 54.5652 20.0755 54.5652 20.806V20.908H51.1551V20.8315C51.1551 20.4238 51.0035 20.05 50.7004 19.7102C50.3973 19.3534 49.9341 19.175 49.311 19.175C48.789 19.175 48.368 19.311 48.048 19.5828C47.7281 19.8546 47.5681 20.2114 47.5681 20.6531C47.5681 21.0609 47.7281 21.3837 48.048 21.6215C48.3848 21.8594 48.7974 22.0208 49.2858 22.1057L50.953 22.437C52.0308 22.6749 52.9401 23.1081 53.6811 23.7367C54.4221 24.3483 54.7926 25.2233 54.7926 26.3616C54.7926 27.2111 54.5652 27.9586 54.1106 28.6042C53.6559 29.2498 53.0243 29.751 52.216 30.1078C51.4245 30.4476 50.5404 30.6175 49.5637 30.6175Z" fill="white"/>
<path d="M63.991 30.6175C62.8627 30.6175 61.9786 30.3541 61.3386 29.8274C60.6987 29.3008 60.2272 28.7231 59.924 28.0945H59.7219V35.7143H56.2107V16.9579H59.7219V19.0476H59.924C60.1935 18.47 60.6482 17.9263 61.2881 17.4166C61.928 16.89 62.8206 16.6266 63.9657 16.6266C65.6666 16.6266 66.9717 17.2637 67.8811 18.5379C68.8073 19.8122 69.2704 21.5196 69.2704 23.6603C69.2704 25.75 68.8073 27.4319 67.8811 28.7061C66.9717 29.9803 65.675 30.6175 63.991 30.6175ZM62.7279 27.8142C63.7384 27.8142 64.4878 27.4064 64.9761 26.591C65.4813 25.7755 65.734 24.7901 65.734 23.6348C65.734 22.5135 65.4813 21.5536 64.9761 20.7551C64.4878 19.9396 63.7384 19.5318 62.7279 19.5318C61.7344 19.5318 60.985 19.9396 60.4798 20.7551C59.9745 21.5706 59.7219 22.539 59.7219 23.6603C59.7219 24.7986 59.9745 25.7755 60.4798 26.591C60.985 27.4064 61.7344 27.8142 62.7279 27.8142Z" fill="white"/>
<path d="M76.9526 30.6175C75.5548 30.6175 74.376 30.3032 73.4161 29.6745C72.4731 29.0289 71.7658 28.1795 71.2942 27.1261C70.8227 26.0728 70.5869 24.9175 70.5869 23.6603C70.5869 22.403 70.8143 21.2478 71.269 20.1944C71.7405 19.1241 72.4562 18.2661 73.4161 17.6205C74.376 16.9749 75.5548 16.6521 76.9526 16.6521C78.3503 16.6521 79.5292 16.9749 80.4891 17.6205C81.449 18.2491 82.1647 19.0901 82.6362 20.1434C83.1077 21.1968 83.3435 22.3521 83.3435 23.6093C83.3435 24.8665 83.1077 26.0303 82.6362 27.1006C82.1647 28.154 81.449 29.0035 80.4891 29.6491C79.5292 30.2947 78.3503 30.6175 76.9526 30.6175ZM76.9526 27.7632C77.9293 27.7632 78.6619 27.3725 79.1503 26.591C79.6555 25.7924 79.9081 24.7986 79.9081 23.6093C79.9081 22.42 79.6555 21.4431 79.1503 20.6786C78.6619 19.8971 77.9293 19.5063 76.9526 19.5063C75.9759 19.5063 75.2433 19.8971 74.7549 20.6786C74.2666 21.4431 74.0224 22.42 74.0224 23.6093C74.0224 24.7986 74.2666 25.7924 74.7549 26.591C75.2601 27.3725 75.9927 27.7632 76.9526 27.7632Z" fill="white"/>
<path d="M85.0338 16.9579H88.4945V19.0986H88.6713C88.8902 18.504 89.2944 18.0028 89.8838 17.595C90.4732 17.1703 91.2311 16.9579 92.1573 16.9579C92.5109 16.9579 92.814 16.9919 93.0667 17.0599L92.9151 20.2964C92.4941 20.1774 92.0478 20.118 91.5763 20.118C90.5322 20.118 89.7575 20.3983 89.2523 20.9589C88.7471 21.5026 88.4945 22.4115 88.4945 23.6858V30.4136H85.0338V16.9579Z" fill="white"/>
<path d="M98.8189 19.7102V25.699C98.8189 26.2936 98.8442 26.7354 98.8947 27.0242C98.9621 27.313 99.1305 27.5424 99.3999 27.7123C99.6694 27.8822 100.107 27.9671 100.713 27.9671C101.067 27.9671 101.429 27.9331 101.8 27.8652V30.3116C101.614 30.3456 101.278 30.3881 100.789 30.4391C100.318 30.49 99.8546 30.5155 99.3999 30.5155C98.1706 30.5155 97.2528 30.3371 96.6465 29.9804C96.0571 29.6066 95.6866 29.1479 95.5351 28.6042C95.3835 28.0436 95.3077 27.33 95.3077 26.4635V19.7102H93.0848V16.9579H95.333V12.5746H98.8189V16.9579H101.8V19.7102H98.8189Z" fill="white"/>
<path d="M103.97 16.9579H107.455V30.4136H103.97V16.9579ZM105.687 14.6389C105.132 14.6389 104.668 14.452 104.298 14.0782C103.927 13.6875 103.742 13.2202 103.742 12.6766C103.742 12.1159 103.927 11.6487 104.298 11.2749C104.668 10.9012 105.132 10.7143 105.687 10.7143C106.243 10.7143 106.706 10.9097 107.077 11.3004C107.447 11.6742 107.632 12.1329 107.632 12.6766C107.632 13.2202 107.447 13.6875 107.077 14.0782C106.706 14.452 106.243 14.6389 105.687 14.6389Z" fill="white"/>
<path d="M114.861 19.7102V25.699C114.861 26.2936 114.887 26.7354 114.937 27.0242C115.005 27.313 115.173 27.5424 115.442 27.7123C115.712 27.8822 116.15 27.9671 116.756 27.9671C117.11 27.9671 117.472 27.9331 117.842 27.8652V30.3116C117.657 30.3456 117.32 30.3881 116.832 30.4391C116.36 30.49 115.897 30.5155 115.442 30.5155C114.213 30.5155 113.295 30.3371 112.689 29.9804C112.1 29.6066 111.729 29.1479 111.577 28.6042C111.426 28.0436 111.35 27.33 111.35 26.4635V19.7102H109.127V16.9579H111.375V12.5746H114.861V16.9579H117.842V19.7102H114.861Z" fill="white"/>
</svg>
